<svg width="25" height="24" viewBox="0 0 25 24" fill="none" xmlns="http://www.w3.org/2000/svg">
<path d="M8.04688 17.4531C9.29688 18.6641 10.7812 19.2695 12.5 19.2695C14.2187 19.2695 15.6836 18.6641 16.8945 17.4531C18.1445 16.2031 18.7695 14.7188 18.7695 13C18.7695 11.2813 18.1445 9.81641 16.8945 8.60547C15.6836 7.35547 14.2187 6.73047 12.5 6.73047C10.7812 6.73047 9.29688 7.35547 8.04688 8.60547C6.83594 9.81641 6.23047 11.2813 6.23047 13C6.23047 14.7188 6.83594 16.2031 8.04688 17.4531ZM8.75 0.519531H16.25L18.5352 2.98047H22.5195C23.1836 2.98047 23.75 3.23437 24.2188 3.74219C24.7266 4.25 24.9805 4.83594 24.9805 5.5V20.5C24.9805 21.1641 24.7266 21.75 24.2188 22.2578C23.75 22.7656 23.1836 23.0195 22.5195 23.0195H2.48047C1.81641 23.0195 1.23047 22.7656 0.722656 22.2578C0.253906 21.75 0.0195312 21.1641 0.0195312 20.5V5.5C0.0195312 4.83594 0.253906 4.25 0.722656 3.74219C1.23047 3.23437 1.81641 2.98047 2.48047 2.98047H6.46484L8.75 0.519531ZM9.6875 15.8125C8.90625 15.0312 8.51562 14.0938 8.51562 13C8.51562 11.9062 8.90625 10.9687 9.6875 10.1875C10.4688 9.40625 11.4062 9.01562 12.5 9.01562C13.5938 9.01562 14.5313 9.40625 15.3125 10.1875C16.0938 10.9687 16.4844 11.9062 16.4844 13C16.4844 14.0938 16.0938 15.0312 15.3125 15.8125C14.5313 16.5938 13.5938 16.9844 12.5 16.9844C11.4062 16.9844 10.4688 16.5938 9.6875 15.8125Z" fill="white"/>
</svg>
