<svg width="29" height="38" viewBox="0 0 29 38" fill="none" xmlns="http://www.w3.org/2000/svg">
<g>
<path fill-rule="evenodd" clip-rule="evenodd" d="M23.5625 12.667H25.375C27.3687 12.667 29 14.2949 29 16.2861V34.3809C29 36.3711 27.3687 38 25.375 38H3.625C1.63135 38 0 36.3711 0 34.3809V16.2861C0 14.2949 1.63135 12.667 3.625 12.667H5.4375V9.04785C5.4375 4.05371 9.49756 0 14.5 0C19.5024 0 23.5625 4.05371 23.5625 9.04785V12.667ZM8.8811 12.667H20.1187V9.04785C20.1187 5.95312 17.5994 3.43848 14.5 3.43848C11.4006 3.43848 8.8811 5.95312 8.8811 9.04785V12.667Z" fill="currentColor"/>
</g>
</svg>
