<svg width="20" height="20" viewBox="0 0 20 20" fill="none" xmlns="http://www.w3.org/2000/svg">
<path d="M12.793 9.3125C13.3659 8.73958 13.6523 8.05208 13.6523 7.25C13.6523 6.2474 13.2943 5.38802 12.5781 4.67188C11.862 3.95573 11.0026 3.59766 10 3.59766C8.9974 3.59766 8.13802 3.95573 7.42188 4.67188C6.70573 5.38802 6.34766 6.2474 6.34766 7.25H8.15234C8.15234 6.76302 8.33854 6.33333 8.71094 5.96094C9.08333 5.58854 9.51302 5.40234 10 5.40234C10.487 5.40234 10.9167 5.58854 11.2891 5.96094C11.6615 6.33333 11.8477 6.76302 11.8477 7.25C11.8477 7.73698 11.6615 8.16667 11.2891 8.53906L10.1719 9.69922C9.45573 10.4727 9.09766 11.332 9.09766 12.2773V12.75H10.9023C10.9023 11.8047 11.2604 10.9453 11.9766 10.1719L12.793 9.3125ZM10.9023 16.4023V14.5977H9.09766V16.4023H10.9023ZM3.51172 3.55469C5.31641 1.75 7.47917 0.847656 10 0.847656C12.5208 0.847656 14.6693 1.75 16.4453 3.55469C18.25 5.33073 19.1523 7.47917 19.1523 10C19.1523 12.5208 18.25 14.6836 16.4453 16.4883C14.6693 18.2643 12.5208 19.1523 10 19.1523C7.47917 19.1523 5.31641 18.2643 3.51172 16.4883C1.73568 14.6836 0.847656 12.5208 0.847656 10C0.847656 7.47917 1.73568 5.33073 3.51172 3.55469Z" fill="currentColor"/>
</svg>
