<svg width="21" height="20" viewBox="0 0 21 20" fill="none" xmlns="http://www.w3.org/2000/svg">
<path fill-rule="evenodd" clip-rule="evenodd" d="M15.1009 2.12088C13.7224 1.27206 12.1688 0.847656 10.4399 0.847656C7.91911 0.847656 5.75635 1.75 3.95166 3.55469C2.17562 5.33073 1.2876 7.47917 1.2876 10C1.2876 11.7288 1.70527 13.2892 2.54061 14.6812L3.88204 13.3398C3.35554 12.3306 3.09229 11.2173 3.09229 10C3.09229 9.48438 3.1639 8.9401 3.30713 8.36719L6.08088 11.1409L7.22183 10H6.7876V8.15234H8.59229C8.8501 8.15234 9.06494 8.06641 9.23682 7.89453C9.43734 7.72266 9.5376 7.50781 9.5376 7.25V5.40234H11.3423C11.5386 5.40234 11.7256 5.37441 11.9033 5.31856L13.1163 4.10556C13.1654 3.94382 13.1899 3.77451 13.1899 3.59766V3.21094C13.385 3.28813 13.5745 3.37224 13.7586 3.46326L15.1009 2.12088ZM13.1899 11.8101V13.6523H14.0923C14.9517 13.6523 15.5389 14.082 15.854 14.9414C17.1431 13.5664 17.7876 11.9193 17.7876 10C17.7876 9.15875 17.6557 8.36148 17.3918 7.60818L18.7887 6.2113C19.3244 7.36365 19.5923 8.62655 19.5923 10C19.5923 12.5208 18.6899 14.6836 16.8853 16.4883C15.1092 18.2643 12.9608 19.1523 10.4399 19.1523C9.06649 19.1523 7.79934 18.8887 6.63848 18.3615L8.07057 16.9294C8.53778 17.0861 9.02679 17.1969 9.5376 17.2617V15.5C9.52515 15.5 9.51274 15.4999 9.50037 15.4996L13.1899 11.8101Z" fill="white"/>
<line x1="1.46967" y1="19.4697" x2="19.8544" y2="1.08489" stroke="white" stroke-width="1.5"/>
</svg>
