<svg width="18px" height="18px" viewBox="0 0 18 18" version="1.1" xmlns="http://www.w3.org/2000/svg" xmlns:xlink="http://www.w3.org/1999/xlink">
    <!-- Generator: Sketch 41.2 (35397) - http://www.bohemiancoding.com/sketch -->
    <title>Shape Copy</title>
    <desc>Created with Sketch.</desc>
    <defs></defs>
    <g id="Page-1" stroke="none" stroke-width="1" fill="none" fill-rule="evenodd">
        <g id="Embed-button-mobile-iphone-6" transform="translate(-30.000000, -573.000000)" fill="#FFFFFF">
            <g id="Closed-Copy" transform="translate(10.000000, 553.000000)">
                <g id="cnt" transform="translate(20.000000, 13.000000)">
                    <path d="M16,7 L2,7 C0.9,7 0,7.9 0,9 L0,23 C0,24.1 0.9,25 2,25 L16,25 C17.1,25 18,24.1 18,23 L18,9 C18,7.9 17.1,7 16,7 Z M6,21 L4,21 L4,14 L6,14 L6,21 Z M10,21 L8,21 L8,11 L10,11 L10,21 Z M14,21 L12,21 L12,17 L14,17 L14,21 Z" id="Shape-Copy"></path>
                </g>
            </g>
        </g>
    </g>
</svg>
