<svg width="17" height="17" viewBox="0 0 17 17" fill="none" xmlns="http://www.w3.org/2000/svg">
<path fill-rule="evenodd" clip-rule="evenodd" d="M8.5 17H0.938269C0.419925 17 0 16.5798 0 16.0617V0.938264C0 0.41999 0.419991 0 0.938269 0H16.0618C16.5799 0 17 0.41999 17 0.938264V16.0617C17 16.5799 16.5799 17 16.0618 17H11.05V10.2H13.9395L14.45 7.65H11.05V6.21302C11.05 5.47021 11.936 4.964 13.0012 4.964L14.45 4.96341V2.66868C14.215 2.63741 13.3184 2.56756 12.3801 2.56756C10.4213 2.56756 8.5 3.76321 8.5 5.95893V7.65H5.95V10.2H8.5V17Z" fill="currentColor"/>
</svg>
