<svg width="18" height="15" viewBox="0 0 18 15" fill="none" xmlns="http://www.w3.org/2000/svg">
<path fill-rule="evenodd" clip-rule="evenodd" d="M18 1.74345C17.3386 2.03916 16.6265 2.23914 15.8796 2.3285C16.6424 1.86897 17.2277 1.14032 17.5034 0.272316C16.7892 0.697806 16 1.00735 15.1569 1.17329C14.4849 0.451018 13.5246 0 12.4617 0C10.4237 0 8.7702 1.66473 8.7702 3.71772C8.7702 4.00918 8.8019 4.29213 8.86529 4.56445C5.79609 4.40914 3.07554 2.93056 1.25304 0.678655C0.935023 1.22966 0.753296 1.86897 0.753296 2.54975C0.753296 3.83898 1.40518 4.97717 2.3962 5.64413C1.79187 5.62604 1.22134 5.45691 0.72266 5.18034V5.22608C0.72266 7.02803 1.99577 8.53107 3.68621 8.87146C3.37665 8.95869 3.05018 9.0023 2.71315 9.0023C2.47544 9.0023 2.243 8.97997 2.01796 8.93635C2.48811 10.4128 3.85102 11.4882 5.46751 11.517C4.2039 12.5147 2.61067 13.1093 0.881138 13.1093C0.583198 13.1093 0.288431 13.0923 0 13.0583C1.63444 14.1114 3.57633 14.7273 5.66085 14.7273C12.4543 14.7273 16.168 9.06294 16.168 4.14959C16.168 3.9879 16.1648 3.82622 16.1585 3.66772C16.8801 3.14331 17.5066 2.48912 18 1.74345Z" fill="currentColor"/>
</svg>
