<svg width="15" height="12" viewBox="0 0 15 12" fill="none" xmlns="http://www.w3.org/2000/svg">
<path d="M4.75 9.12891L12.6953 1.18359L13.75 2.23828L4.75 11.2383L0.566406 7.05469L1.62109 6L4.75 9.12891Z" fill="white"/>
<path d="M4.75 9.12891L4.60858 9.27033L4.75 9.41175L4.89142 9.27033L4.75 9.12891ZM12.6953 1.18359L12.8367 1.04217L12.6953 0.900751L12.5539 1.04217L12.6953 1.18359ZM13.75 2.23828L13.8914 2.3797L14.0328 2.23828L13.8914 2.09686L13.75 2.23828ZM4.75 11.2383L4.60858 11.3797L4.75 11.5211L4.89142 11.3797L4.75 11.2383ZM0.566406 7.05469L0.424985 6.91327L0.283564 7.05469L0.424985 7.19611L0.566406 7.05469ZM1.62109 6L1.76252 5.85858L1.62109 5.71716L1.47967 5.85858L1.62109 6ZM4.89142 9.27033L12.8367 1.32502L12.5539 1.04217L4.60858 8.98748L4.89142 9.27033ZM12.5539 1.32502L13.6086 2.3797L13.8914 2.09686L12.8367 1.04217L12.5539 1.32502ZM13.6086 2.09686L4.60858 11.0969L4.89142 11.3797L13.8914 2.3797L13.6086 2.09686ZM4.89142 11.0969L0.707828 6.91327L0.424985 7.19611L4.60858 11.3797L4.89142 11.0969ZM0.707828 7.19611L1.76252 6.14142L1.47967 5.85858L0.424985 6.91327L0.707828 7.19611ZM1.47967 6.14142L4.60858 9.27033L4.89142 8.98748L1.76252 5.85858L1.47967 6.14142Z" fill="white"/>
</svg>
