<svg width="20" height="20" viewBox="0 0 20 20" fill="none" xmlns="http://www.w3.org/2000/svg">
<line y1="-1" x2="18" y2="-1" transform="translate(6.5 14.9082) rotate(-45)" stroke-width="2"/>
<line y1="-1" x2="11" y2="-1" transform="translate(18) rotate(90)" stroke-width="2"/>
<line y1="-1" x2="9" y2="-1" transform="translate(9 2)" stroke-width="2"/>
<path fill-rule="evenodd" clip-rule="evenodd" d="M5 0H3C1.34277 0 0 1.34314 0 3V17C0 18.6569 1.34277 20 3 20H17C18.6572 20 20 18.6569 20 17V15H18V17C18 17.5523 17.5527 18 17 18H3C2.44727 18 2 17.5523 2 17V3C2 2.44769 2.44727 2 3 2H5V0Z" />
</svg>
