<svg width="18" height="18" viewBox="0 0 18 18" fill="none" xmlns="http://www.w3.org/2000/svg">
<path d="M17.0156 17.0156V12.9844H15V17.0156H17.0156ZM12.9844 17.0156V6.98438H11.0156V17.0156H12.9844ZM9 17.0156V9.98438H6.98438V17.0156H9ZM18.9844 3C19.5156 3 19.9844 3.20312 20.3906 3.60938C20.7969 4.01563 21 4.48438 21 5.01562V18.9844C21 19.5156 20.7969 19.9844 20.3906 20.3906C19.9844 20.7969 19.5156 21 18.9844 21H5.01562C4.48438 21 4.01562 20.7969 3.60938 20.3906C3.20312 19.9844 3 19.5156 3 18.9844V5.01562C3 4.48438 3.20312 4.01563 3.60938 3.60938C4.01562 3.20312 4.48438 3 5.01562 3H18.9844Z" transform="translate(21 -3) scale(-1 1)" fill="currentColor"/>
</svg>
