<svg width="76" height="24" viewBox="0 0 76 24" fill="none" xmlns="http://www.w3.org/2000/svg">
<path fill-rule="evenodd" clip-rule="evenodd" d="M70.1702 14.7668L76 23.5502H69.8723L65.7872 17.264V23.5071H60.4681V0.558381H65.7872V12.1835L69.8723 6.80147H76L70.1702 14.7668ZM12.5957 0.730605C12.1702 1.93617 11.8298 2.84034 11.3191 4.39035C10.4681 4.30424 9.19149 3.91673 8.51064 4.56257C7.95745 5.07924 8.08511 6.11258 8.12766 6.80147H11.8298V11.3654H8.08511V23.5502H2.7234V11.3654H0V7.53342C0.723404 7.27509 1.91489 6.9737 2.68085 6.71536C2.7234 5.38063 2.68085 4.00285 3.2766 2.79728C3.74468 1.85006 4.55319 1.07505 5.48936 0.644493C7.70213 -0.388847 10.383 -0.0444001 12.5957 0.730605ZM16.5106 6.80147C16.9362 8.48065 17.234 9.6001 17.5745 10.6765C18.5532 8.22232 20.8936 6.67231 23.1489 6.2848L24.4255 11.6237C21.234 12.5279 18.383 12.7862 18.383 15.5849V23.5502H13.0638V6.80147H16.5106ZM58.766 10.6334C59.1064 11.5807 58.0851 8.73899 58.766 10.6334C59.4894 12.6571 59.234 14.8529 59.234 16.9626V23.5502H53.9149V16.7043C53.9149 15.0682 54.2979 12.8293 52.6809 11.839C51.4894 11.1071 49.7872 11.3654 48.9787 12.571C48.5532 13.2598 48.5532 13.9918 48.5532 14.7668V17.7377V23.5502H43.234V6.80147H46.2979C46.6383 7.66259 46.9787 8.48065 47.3192 9.34177C48 8.35148 48.766 7.40426 49.8723 6.88759C50.9787 6.37092 52.383 6.24175 53.5745 6.41397C56 6.75842 57.9149 8.30843 58.766 10.6334ZM37.7447 8.86815L38.5532 6.80147H42V23.5502H38.5532L37.7447 21.4405C36.0851 23.9807 32.8936 24.4113 30.1702 23.6794C24.7234 22.2155 23.1915 14.9821 25.617 10.4182C26.766 8.26537 28.6383 6.88759 31.0213 6.45703C33.5319 6.02647 36.2553 6.58619 37.7447 8.86815ZM36.5106 16.489C36.6383 16.0585 36.2979 17.3501 36.5106 16.489C37.0638 14.2932 36.1702 11.1501 33.4468 11.1071C29.1064 11.0209 29.1064 19.2015 33.4468 19.1585C35.0213 19.1585 36.1702 17.9529 36.5106 16.489Z" fill="currentColor"/>
</svg>
