<svg width="19" height="20" viewBox="0 0 19 20" fill="none" xmlns="http://www.w3.org/2000/svg">
<path d="M9.16667 0C4.10667 0 0 4.10667 0 9.16667C0 14.2267 4.10667 18.3333 9.16667 18.3333H13.75V16.5H9.16667C5.18833 16.5 1.83333 13.145 1.83333 9.16667C1.83333 5.18833 5.18833 1.83333 9.16667 1.83333C13.145 1.83333 16.5 5.18833 16.5 9.16667V10.4775C16.5 11.2017 15.8492 11.9167 15.125 11.9167C14.4008 11.9167 13.75 11.2017 13.75 10.4775V9.16667C13.75 6.63667 11.6967 4.58333 9.16667 4.58333C6.63667 4.58333 4.58333 6.63667 4.58333 9.16667C4.58333 11.6967 6.63667 13.75 9.16667 13.75C10.4317 13.75 11.5867 13.2367 12.4117 12.4025C13.0075 13.2183 14.0342 13.75 15.125 13.75C16.9308 13.75 18.3333 12.2833 18.3333 10.4775V9.16667C18.3333 4.10667 14.2267 0 9.16667 0ZM9.16667 11.9167C7.645 11.9167 6.41667 10.6883 6.41667 9.16667C6.41667 7.645 7.645 6.41667 9.16667 6.41667C10.6883 6.41667 11.9167 7.645 11.9167 9.16667C11.9167 10.6883 10.6883 11.9167 9.16667 11.9167Z" transform="translate(0.314453 0.833496)" fill="currentColor" fill-opacity="1"/>
</svg>
